<svg width="36" height="41" viewBox="0 0 36 41" fill="none" xmlns="http://www.w3.org/2000/svg">
<path d="M4.39548 21.415C4.39354 21.4032 4.39354 21.3934 4.3916 21.3835C4.26537 20.1131 4.08672 18.7974 3.8537 17.4346C2.84 16.5411 2.0613 15.7576 1.52146 15.0781V15.0742C1.32533 14.8248 1.1525 14.5813 1.00102 14.3418C0.886443 15.5082 0.901978 16.6825 1.0515 17.8705C1.27094 19.6202 1.60302 21.3914 2.04964 23.1841C2.48852 24.9416 3.36237 26.7305 4.6654 28.5549C5.99368 30.4067 7.12386 31.8323 8.05986 32.8279C9.10657 33.9118 9.49492 35.5496 9.22697 37.741C9.12793 38.5383 9.36485 39.1274 9.93384 39.5083C10.6155 39.9286 11.6932 40.1092 13.1652 40.0523C16.2101 39.9344 18.1229 39.5967 18.9036 39.037C19.5405 38.5187 19.7095 37.688 19.4104 36.5452C19.0317 35.1136 18.8472 34.1671 18.8531 33.7037V33.6821C18.6414 33.5977 18.4278 33.5172 18.2142 33.4386C18.2006 33.4327 18.185 33.4268 18.1714 33.421C16.0878 32.4195 14.2857 30.8426 12.7612 28.6885C12.1747 27.8598 11.5513 26.8367 10.8911 25.6172C10.6969 25.2618 10.1221 24.1523 9.16665 22.2908H9.17053C8.91032 21.8057 8.30055 21.1499 7.34512 20.3251L7.35483 20.3349C6.38 19.5416 5.57604 18.8818 4.94489 18.3555C5.09636 19.3452 5.2187 20.3113 5.30997 21.2519C5.40707 21.5622 5.8168 21.8744 6.5431 22.1926C6.65962 22.2436 6.74312 22.33 6.78973 22.4498C6.83827 22.5696 6.83633 22.6894 6.78584 22.8091C6.73535 22.9289 6.64991 23.0114 6.53145 23.0585C6.41299 23.1076 6.29454 23.1057 6.17608 23.0546C5.04396 22.5637 4.44982 22.0158 4.39548 21.415ZM26.8459 10.4948C28.1101 12.5881 29.3413 15.0544 30.5375 17.892C31.6871 20.0638 32.4076 22.0177 32.693 23.7515C33.0562 25.9234 33.4329 27.4118 33.8251 28.213L33.829 28.2209C34.0038 28.5586 34.6796 29.2832 35.8544 30.4005C35.9263 30.4693 35.9709 30.5517 35.9904 30.6499C36.0098 30.7481 36.0001 30.8424 35.9593 30.9327C33.9378 35.4943 30.9258 38.1983 26.9215 39.0428C26.8438 39.0585 26.768 39.0565 26.6923 39.033C26.6146 39.0094 26.5486 38.9682 26.4923 38.9093C24.4979 36.8239 22.2706 35.2175 19.8118 34.0924C19.8779 34.5754 20.0429 35.3138 20.3031 36.3054C20.7245 37.9156 20.443 39.0781 19.4584 39.789C18.6176 40.4606 16.53 40.8612 13.1995 40.9888C11.481 41.0556 10.2265 40.8238 9.43612 40.2976C8.53313 39.732 8.15834 38.8405 8.30788 37.625C8.53508 35.7772 8.2302 34.3928 7.39127 33.4718C6.43195 32.4527 5.27458 30.9976 3.91523 29.1026C2.53261 27.1704 1.61212 25.2735 1.14994 23.41C0.693588 21.5819 0.355673 19.7752 0.132362 17.9884C-0.0890152 16.2191 -0.0327002 14.4714 0.301307 12.7432C0.239166 12.4742 0.208095 12.211 0.210039 11.9597C0.210039 11.3333 0.270236 10.9052 0.388698 10.6735V10.6695C0.575122 10.214 0.986796 9.98616 1.61989 9.98616C1.63931 9.9842 1.66067 9.9842 1.68009 9.98616C1.37327 9.53059 1.13245 9.12413 0.959648 8.76867C0.54602 7.92035 0.340173 7.11523 0.34405 6.35137C0.342109 5.90365 0.450854 5.46772 0.66641 5.04158C0.998478 4.39752 1.45093 4.08529 2.02576 4.10489C2.14034 4.09311 2.31705 4.14024 2.5559 4.24824C2.4258 3.98511 2.35395 3.79463 2.33647 3.67682V3.68664C2.2685 3.37245 2.23743 3.1211 2.23937 2.93062C2.23937 2.29244 2.30151 1.86238 2.42968 1.63461V1.63853C2.6161 1.18492 3.04528 0.959081 3.71715 0.959081C4.04727 0.931589 5.16191 1.50894 7.06115 2.693C7.04367 2.63606 7.03396 2.58696 7.02814 2.5418C6.9757 2.24332 6.9524 2.03322 6.95434 1.90558C6.95434 1.32631 7.01648 0.915858 7.14077 0.678281L7.14465 0.674354C7.34273 0.224671 7.72724 0.000832909 8.29814 0.000832909C8.68847 -0.0325496 10.475 0.937519 13.6597 2.91299C17.0289 5.00036 19.0232 6.18644 19.6447 6.46725H19.6408C19.6835 6.48689 19.7282 6.50652 19.7728 6.52616C19.6039 6.18644 19.5107 5.8644 19.4893 5.56002C19.4116 4.77062 19.4485 4.00676 19.598 3.2684V3.26447C19.7631 2.44365 20.2447 1.78778 21.0409 1.2988H21.037C21.5768 0.91392 22.1245 1.06316 22.6799 1.74652C23.0663 2.21191 23.4624 3.02293 23.8664 4.18151C24.614 6.33368 25.6089 8.43463 26.8459 10.4948ZM26.4692 13.945L26.4653 13.9391C25.3099 12.5547 24.4903 11.5826 24.0049 11.0289C23.2281 10.1354 22.5213 9.43238 21.8824 8.91596H21.8785C21.7057 8.77457 21.5251 8.63515 21.3387 8.50358C21.3348 8.50162 21.3309 8.49769 21.329 8.49573L21.3212 8.4918C20.7037 8.0539 20.0182 7.66707 19.2667 7.3293H19.2628C18.6297 7.04653 16.5985 5.84281 13.1709 3.71809C10.2425 1.90167 8.6191 0.976801 8.29478 0.941461C8.1433 0.941461 8.0365 0.990553 7.97436 1.08874L7.97824 1.08481C7.91222 1.24583 7.88115 1.52075 7.87921 1.90954C7.88115 2.00184 7.90251 2.15893 7.9394 2.38083V2.38476C7.98989 2.60665 8.21127 3.03867 8.60546 3.68077C9.14142 4.03031 9.724 4.41125 10.3532 4.82558V4.8295C12.4058 6.19228 15.1186 8.03031 18.4937 10.3436C18.5986 10.4163 18.6626 10.5145 18.6859 10.6402C18.7112 10.7678 18.6879 10.8856 18.6141 10.9917C18.5422 11.0977 18.4451 11.1625 18.3209 11.1861C18.1946 11.2116 18.0801 11.1861 17.9733 11.1134C14.6041 8.8041 11.8948 6.96808 9.84616 5.6053V5.60923C9.19562 5.17918 8.59364 4.78253 8.04406 4.42315C8.02659 4.41333 8.00911 4.40351 7.99358 4.39173C5.47297 2.76187 4.0476 1.92929 3.71745 1.89591C3.49413 1.89591 3.34266 1.94697 3.2611 2.04908V2.05301C3.19896 2.20814 3.16595 2.50269 3.16595 2.93078C3.16789 3.0702 3.19508 3.25675 3.24362 3.48848V3.4983C3.29994 3.72019 3.60871 4.29161 4.16993 5.2106C5.25546 5.945 6.77986 7.07608 8.74313 8.60188C11.1861 10.4968 13.4562 12.3152 15.5513 14.0552C15.6504 14.1377 15.7048 14.2437 15.7164 14.3733C15.73 14.501 15.695 14.6149 15.6154 14.715C15.5339 14.8151 15.429 14.8701 15.3008 14.8819C15.1746 14.8957 15.062 14.8603 14.9629 14.7798C12.8754 13.0459 10.615 11.2353 8.18158 9.34609C6.20275 7.80852 4.67253 6.67548 3.59281 5.94697C3.5831 5.94108 3.57534 5.93518 3.56563 5.92929L3.54427 5.91555C2.71893 5.35981 2.2121 5.06724 2.02374 5.03778C1.8043 5.05742 1.62759 5.20076 1.48972 5.46783C1.34408 5.75256 1.27028 6.04513 1.27028 6.34559C1.27417 6.97593 1.447 7.64357 1.79073 8.3466C2.08978 8.95729 2.60051 9.72707 3.32483 10.6579C5.19682 11.7831 8.46715 14.4694 13.1332 18.7147C13.2284 18.8011 13.2789 18.9111 13.2866 19.0407C13.2925 19.1683 13.2536 19.2802 13.1682 19.3765C13.0827 19.4727 12.974 19.5257 12.8458 19.5336C12.7196 19.5414 12.607 19.5002 12.5118 19.4138C7.88034 15.1978 4.64918 12.5388 2.81577 11.4374C2.79246 11.4276 2.77304 11.4158 2.75168 11.4001C2.23511 11.0957 1.85645 10.9347 1.61956 10.919C1.4312 10.919 1.29915 10.97 1.2273 11.0702V11.0662C1.16516 11.2273 1.13603 11.5238 1.13603 11.9558C1.13797 12.1561 1.16516 12.3642 1.21759 12.5783C1.21953 12.5861 1.22341 12.594 1.22341 12.6018C1.37877 13.191 1.72055 13.8193 2.24487 14.4889V14.485C2.78083 15.1546 3.55953 15.9362 4.58099 16.8257L4.58487 16.8296C4.5907 16.8355 4.59846 16.8414 4.60623 16.8473C4.71498 16.9416 4.82761 17.0378 4.94024 17.134L4.94413 17.1379C5.63156 17.7191 6.6297 18.542 7.93661 19.6023C7.93855 19.6062 7.94243 19.6102 7.94632 19.6121C9.02797 20.5469 9.70765 21.295 9.98923 21.8586H9.99311C10.9407 23.7084 11.5117 24.81 11.7039 25.1654C12.3428 26.3456 12.9448 27.3373 13.5119 28.1404C14.9353 30.1512 16.617 31.626 18.5587 32.5685C18.5626 32.5705 18.5646 32.5705 18.5684 32.5725C21.7085 33.7075 24.5126 35.5396 26.9809 38.071C30.4763 37.2286 33.1428 34.8212 34.9797 30.8507C33.8301 29.7452 33.1718 29.0048 33.0009 28.6357C32.9989 28.6337 32.9989 28.6318 32.997 28.6298C32.5698 27.7795 32.1639 26.2066 31.7794 23.9091C31.5017 22.2675 30.8182 20.4177 29.7307 18.3598C29.7249 18.348 29.7171 18.3343 29.7093 18.3225C29.7074 18.3186 29.7055 18.3146 29.7035 18.3127C29.3656 17.6706 28.9889 17.0127 28.5733 16.3372C28.5559 16.3136 28.5403 16.2901 28.5267 16.2645C27.8393 15.5164 27.1527 14.7442 26.4692 13.945ZM27.1761 13.3362L27.1722 13.3284C27.3392 13.5247 27.5081 13.7191 27.6751 13.9136C27.1392 12.865 26.5993 11.8871 26.0517 10.9798C24.7817 8.86498 23.7602 6.70492 22.9873 4.50152C22.63 3.48043 22.2863 2.76368 21.9562 2.34734C21.7931 2.14704 21.6455 2.06457 21.5173 2.10385H21.5134C20.96 2.44356 20.6201 2.8952 20.4958 3.45682C20.3657 4.10681 20.3327 4.77837 20.4007 5.47351C20.4842 6.11169 20.9775 6.86771 21.8746 7.73959C21.8785 7.74352 21.8843 7.74549 21.8882 7.74941C22.0843 7.88883 22.2727 8.03218 22.4552 8.17946H22.4513C23.129 8.72142 23.8767 9.46175 24.6962 10.4024C25.1894 10.964 26.0148 11.9401 27.1761 13.3362Z" fill="black"/>
</svg>
